<svg id="Layer_1" data-name="Layer 1" xmlns="http://www.w3.org/2000/svg" viewBox="0 0 270.22 24.65"><defs><style>.cls-1{fill:none;}</style></defs><path class="cls-1" d="M390.41,504.14c-.11-2.06-.48-3.17-1.4-4s-2.29-1.29-5-1.29h-5.45c-2.69,0-3.94.33-5,1.29a4.43,4.43,0,0,0-1.29,3.54v.52a4.36,4.36,0,0,0,1.29,3.57c1,1,2.28,1.29,5,1.29h6.23c4.79,0,7.22,2.06,7.22,6.15v.7c0,4.09-2.43,6.16-7.22,6.16h-7c-2.72,0-4.34-.52-5.63-1.77-1.11-1.07-1.55-2.25-1.74-4.64l1.48-.22c.11,2,.48,3.13,1.4,4s2.28,1.29,5,1.29h6c2.69,0,3.95-.33,5-1.29a4.34,4.34,0,0,0,1.26-3.53v-.63a4.36,4.36,0,0,0-1.26-3.54c-1.06-1-2.32-1.29-5-1.29H378.1c-4.83,0-7.26-2.06-7.26-6.15v-.63c0-4.09,2.43-6.15,7.26-6.15h6.41c2.73,0,4.35.51,5.64,1.77,1.11,1.07,1.55,2.25,1.73,4.64Z" transform="translate(-370.47 -497.39)"/><path class="cls-1" d="M406.51,522.05H405V497.47h1.47V509H425.2V497.47h1.47v24.58H425.2V510.4H406.51Z" transform="translate(-370.47 -497.39)"/><path class="cls-1" d="M441.41,498.83V509h16.95l-.26,1.36H441.41v10.28h17.95v1.37H439.94V497.47h18.42v1.36Z" transform="translate(-370.47 -497.39)"/><path class="cls-1" d="M472.88,522.05h-1.47V497.47h14.26c2.72,0,4.35.51,5.6,1.77s1.77,2.84,1.77,5.64v1.17c0,2.81-.52,4.39-1.77,5.64s-2.65,1.7-5.6,1.77l7.62,8.59h-2l-7.44-8.59h-11Zm0-9.95h12.27c2.73,0,4-.33,5-1.29s1.4-2.21,1.4-5v-.73c0-2.77-.37-4-1.4-5s-2.28-1.29-5-1.29H472.88Z" transform="translate(-370.47 -497.39)"/><path class="cls-1" d="M524,513.46H508.7l-4.5,8.59h-1.58l13-24.66h1.47l13,24.66h-1.63Zm-7.67-14.77-7,13.41h14Z" transform="translate(-370.47 -497.39)"/><path class="cls-1" d="M557.93,520.68v1.37H538.77v-1.37l17.5-21.85H539l.22-1.36h18.68v1.36l-17.5,21.85Z" transform="translate(-370.47 -497.39)"/><path class="cls-1" d="M568.76,519.58h2v2.47h-2Z" transform="translate(-370.47 -497.39)"/><path class="cls-1" d="M604.14,515.64c-.22,2.39-.66,3.57-1.77,4.64-1.25,1.25-2.87,1.77-5.6,1.77h-6.89c-2.73,0-4.39-.52-5.64-1.77s-1.73-2.84-1.73-5.6v-9.84c0-2.76.48-4.35,1.73-5.6s2.91-1.77,5.64-1.77h6.89c2.73,0,4.35.51,5.6,1.77,1.11,1.07,1.55,2.25,1.77,4.64l-1.47.26c-.11-2.06-.52-3.17-1.4-4s-2.29-1.29-5-1.29h-5.89c-2.69,0-3.94.33-5,1.29s-1.4,2.21-1.4,5v9.32c0,2.76.33,4,1.4,5s2.29,1.29,5,1.29h5.89c2.73,0,4-.33,5-1.29s1.29-1.95,1.4-4Z" transform="translate(-370.47 -497.39)"/><path class="cls-1" d="M634.58,513.46H619.25l-4.5,8.59h-1.58l13-24.66h1.47l13.05,24.66h-1.63Zm-7.67-14.77-7,13.41h14Z" transform="translate(-370.47 -497.39)"/></svg>