<?xml version="1.0" encoding="utf-8"?>
<!-- Generator: Adobe Illustrator 26.0.2, SVG Export Plug-In . SVG Version: 6.00 Build 0)  -->
<svg version="1.1" id="Layer_1" xmlns="http://www.w3.org/2000/svg" xmlns:xlink="http://www.w3.org/1999/xlink" x="0px" y="0px"
	 viewBox="0 0 1008 864" style="enable-background:new 0 0 1008 864;" xml:space="preserve">
<style type="text/css">
	.st0{fill:#FDFDFD;}
	.st1{fill:#010101;}
	.st2{fill:#FEFEFE;}
	.st3{fill:#FAFAFA;}
	.st4{fill:#E9E9E9;}
	.st5{fill:#AEAEAE;}
	.st6{fill:#EBEBEB;}
</style>
<path class="st0" d="M330.62,578.39c0-97.66,0-195.31-0.03-292.97c0-1.15,0.14-1.55,1.45-1.55c83.15,0.04,166.31,0.04,249.46,0
	c1.19,0,1.41,0.27,1.41,1.43c-0.03,126.27-0.03,252.55,0.01,378.82c0,1.3-0.38,1.46-1.54,1.46c-83.1-0.03-166.2-0.03-249.3-0.05
	c-0.48,0-1.11,0.38-1.47-0.31c0.81-0.66,1.77-0.43,2.67-0.43c34.7-0.01,69.39-0.01,104.09-0.01c20.01,0,40.03-0.02,60.04,0.04
	c1.98,0.01,3.67-0.5,5.1-1.75c2.62-2.29,5.37-4.46,7.44-7.29c1.64-2.24,2.92-4.71,4.2-7.17c1-1.93,2.13-3.79,3.28-5.64
	c2.39-3.84,4.32-7.91,6.02-12.09c0.78-1.93,1.9-3.67,2.78-5.53c1.49-3.15,2.51-6.47,3.47-9.81c0.2-0.7,0.61-1.27,1.01-1.85
	c0.61-0.89,0.97-1.84,0.67-2.92c-0.17-0.61-0.17-1.44-0.9-1.62c-0.78-0.19-1.72,0.15-1.99,0.82c-1.84,4.49-6.6,6.22-9.21,9.96
	c-0.34,0.49-0.8,0.89-1.1,1.41c-2.5,4.46-6.15,7.99-9.47,11.79c-1.43,1.63-3.24,2.69-5.13,3.7c-4.09,2.17-8.39,3.83-12.64,5.64
	c-7.75,3.31-15.76,5.96-23.5,9.28c-1.19,0.51-2.38,0.64-3.64,0.12c-2.17-0.9-4.48-0.4-6.29,0.55c-1.81,0.94-3.33,0.78-4.97,0.29
	c-0.93-0.28-1.68-0.42-2.62-0.02c-1.12,0.48-2.27,0.26-3.18-0.61c-0.66-0.62-0.86-1.41-0.35-2.22c0.47-0.75,1.12-0.46,1.72-0.15
	c0.1,0.05,0.2,0.14,0.3,0.12c2.54-0.36,5.31-0.28,7.27-2.18c1.3-1.26,2.41-2.14,4.24-1.39c0.84,0.34,1.62,0.06,2.26-0.52
	c1.25-1.13,2.75-1.69,4.36-2.09c2.18-0.54,2.67-1.47,2.5-3.66c-0.14-1.87-0.85-3.4-1.91-4.92c-2.01-2.87-4.2-5.53-7-7.67
	c-0.62-0.48-1.25-0.79-2.01-0.97c-3.4-0.81-3.82-2.47-3.78-5.51c0.02-1.39,1.37-2.55,3-2.78c3.01-0.42,5.88,0.17,8.49,1.65
	c2.26,1.28,4.46,2.69,6.58,4.2c1.12,0.8,3.48,0.79,4.44-0.03c1.71-1.47,2.33-3.48,1.6-5.04c-1.63-3.48-3.17-7.01-4.21-10.72
	c-0.42-1.52-1.36-2.69-2.79-3.2c-1.52-0.55-3.02-1.22-4.66-1.41c-2.16-0.24-3.62-1.34-4.16-3.54c-0.26-1.06-0.61-2.09-0.79-3.17
	c-0.23-1.39,0.18-2.19,1.55-2.39c2.77-0.39,5.53-1.34,8.39-0.56c0.36,0.1,0.78,0.06,1.1,0.27c2.27,1.43,4.61,0.6,6.93,0.21
	c0.85-0.14,1.68-0.48,2.56-0.46c1.4,0.04,2.61-0.39,3.86-1.06c2.23-1.19,4.48-0.47,6.54,0.57c1.12,0.57,1.19,1.87,1.07,3.06
	c-0.1,0.99-0.76,1.29-1.64,1.52c-1.06,0.28-1.68,1.81-1.28,2.79c0.41,0.99,1.45,1.4,2.6,0.81c2.61-1.34,5.11-2.87,7.43-4.66
	c0.5-0.38,0.71-0.94,0.91-1.51c0.67-1.97,1.68-3.5,4.09-3.56c1.06-0.02,1.24-0.7,0.56-1.55c-1.17-1.47-2.7-1.67-4.27-0.56
	c-0.75,0.54-1.45,1.16-2.25,1.62c-1.49,0.85-2.7,0.22-2.62-1.44c0.06-1.32-0.52-1.85-1.66-2.18c-1.66-0.48-3.19-0.32-4.71,0.54
	c-4.21,2.37-8.45,1.74-12.65-0.05c-2.49-1.06-3.03-3.42-3.59-5.69c-0.58-2.38-1.82-4.29-3.7-5.8c-1.69-1.36-2.39-1.36-4.13-0.07
	c-0.86,0.64-1.18,0.3-1.2-0.58c-0.03-1.02-0.51-1.85-0.88-2.76c-0.57-1.4-0.81-2.86-0.01-4.34c0.63-1.16,0.68-2.53,0.73-3.8
	c0.05-1.25-0.9-1.9-2.08-2.14c-1.21-0.25-2.38,0.07-3.56,0.2c-0.64,0.07-1.36,0.27-1.8-0.38c-0.42-0.62-0.09-1.26,0.15-1.87
	c0.33-0.84,0.92-1.46,1.65-1.98c0.62-0.44,1.26-0.85,1.82-1.38c1.48-1.4,1.48-2-0.07-3.39c-0.42-0.37-0.75-0.78-0.93-1.31
	c-0.42-1.24-1.31-1.39-2.34-0.88c-3.24,1.6-5.42,4.16-6.45,7.61c-0.6,2.04,0.31,4.06,2.08,5.17c0.72,0.45,1.26,1.04,1.66,1.76
	c0.53,0.96,1.06,1.82,2.16,2.32c0.98,0.45,0.58,1.33,0.06,1.91c-0.57,0.64-1.25,1.2-1.9,1.78c-1.44,1.3-1.61,2.39-0.71,4.13
	c0.47,0.89,0.53,1.88,0.67,2.84c0.32,2.16,0.69,4.3,1.92,6.18c0.12,0.18,0.2,0.39,0.25,0.6c0.15,0.7,0.38,1.61-0.3,1.94
	c-0.7,0.33-0.81-0.66-1.13-1.1c-1.18-1.6-2.16-1.89-3.91-0.96c-2.21,1.18-4.49,2.33-5,5.18c-0.03,0.16-0.14,0.29-0.25,0.41
	c-0.07,0.09-0.16,0.14-0.5,0.15c-0.62-1.5-0.51-3.07-0.04-4.62c0.63-2.06,1.74-4.01,1.21-6.31c-0.13-0.56,0.35-1,0.64-1.46
	c0.73-1.17,0.83-2.3-0.07-3.47c-0.87-1.13-1.54-2.37-1.53-3.87c0-0.55-0.2-1.1-0.51-1.53c-2.03-2.79-1.6-5.92-1.23-9.02
	c0.11-0.92,0.23-1.84,0.13-2.76c-0.12-1.12-0.78-1.5-1.83-1.2c-1.76,0.5-2.46,2-2.82,3.52c-0.59,2.53-0.56,5.17-1.12,7.73
	c-0.34,1.54,0.5,2.22,2.2,2.36c1.15,0.1,1.5,0.81,0.8,1.76c-1.67,2.26-1.55,4.99-2.11,7.55c-0.13,0.61,0.27,1.14,0.64,1.62
	c0.72,0.95,1.43,1.92,2.08,2.92c0.42,0.64,0.77,1.33,0.6,2.14c-0.09,0.42-0.2,0.93-0.67,1.03c-0.43,0.1-0.6-0.37-0.83-0.66
	c-1.04-1.34-1.78-1.26-2.59,0.26c-0.37,0.7-0.55,1.41-0.24,2.19c0.14,0.36,0.23,0.73,0.19,1.12c-0.07,0.68-0.22,1.37-0.99,1.51
	c-0.87,0.15-1.15-0.59-1.23-1.22c-0.26-1.94-0.48-3.91,0.26-5.8c0.56-1.42,0.6-2.86,0.48-4.34c-0.1-1.26-0.73-2.02-2.07-2.05
	c-0.27-0.01-0.54-0.01-0.81-0.04c-0.88-0.08-1.9-0.11-2.15-1.11c-0.25-0.95,0.55-1.58,1.23-2.13c1.86-1.49,1.86-1.48,0.17-3.16
	c-1.57-1.55-1.64-2.12-0.77-4.15c0.56-1.29,1.01-2.59,0.67-4.1c-0.3-1.37,0.27-2.63,1.48-3.38c1.35-0.83,1.82-2.12,2.13-3.51
	c0.27-1.23-0.53-2.53-1.74-2.97c-1.02-0.37-1.87,0.09-2.44,1.55c-0.9,2.31-2.12,4.4-3.7,6.3c-1.11,1.34-1.45,3.02-2.09,4.58
	c-0.22,0.55-0.05,1.07,0.21,1.56c0.43,0.82,0.71,1.71,1.02,2.58c0.71,1.97,1.16,3.96,0.53,6.05c-0.51,1.69-0.04,2.94,1.58,3.81
	c1.06,0.56,1.98,1.35,2.53,2.48c0.19,0.39,0.38,0.81,0.07,1.23c-0.34,0.46-0.82,0.47-1.32,0.35c-0.86-0.21-1.69-1.02-2.61-0.36
	c-0.94,0.67-1.1,1.84-1.51,2.83c-0.13,0.3-0.15,0.63-0.23,0.95c-0.13,0.49,0,1.28-0.72,1.26c-0.67-0.02-0.96-0.71-1.02-1.31
	c-0.2-1.9-0.3-3.8,0.38-5.64c0.63-1.71,0.95-3.44,0.51-5.27c-0.35-1.5-0.59-1.63-1.91-0.74c-0.72,0.49-1.48,0.94-1.74,1.86
	c-0.12,0.4-0.43,0.68-0.83,0.67c-1.25-0.01-2.46-0.02-3.6,0.68c-0.41,0.25-0.77-0.26-1.01-0.63c-0.36-0.55-0.67-1.12-0.98-1.69
	c-0.64-1.21-1.44-1.97-2.99-1.61c-1.06,0.25-1.73-0.33-1.95-1.45c-0.39-1.97-0.78-3.95-0.94-5.95c-0.16-1.96,0.18-3.75,1.72-5.22
	c1.52-1.45,2.27-3.44,3.33-5.2c0.45-0.75,0.22-1.44-0.19-2.15c-1.22-2.11-1.37-4.03,0.31-6.16c2.62-3.33,5.04-6.79,8.51-9.34
	c1.4-1.03,2.58-2.33,3.62-3.75c0.32-0.44,0.67-0.92,1.32-0.77c0.6,0.14,0.58,0.72,0.73,1.17c0.62,1.78,1.19,1.93,2.65,0.68
	c0.94-0.8,1.75-1.65,1.53-3.04c-0.05-0.32,0-0.75,0.27-0.91c1.31-0.74,1.39-1.81,1.14-3.15c-0.13-0.71,0.17-1.54,0.57-2.18
	c0.67-1.04,0.92-2.05,0.83-3.34c-0.08-1.06,0.21-2.02-0.99-2.62c-0.49-0.25-0.47-0.82-0.41-1.32c0.14-1.25,0.38-2.45,1.12-3.53
	c1.34-1.95,1.39-4.18,1.25-6.44c-0.04-0.69-0.41-1.09-1.06-1.27c-0.81-0.21-1.51-0.06-2.06,0.6c-0.36,0.44-0.56,0.97-0.5,1.52
	c0.18,1.8-0.71,3-2.1,3.95c-2.52,2.23-5.12,4.37-7.63,6.61c-0.53,0.48-1.05,0.97-1.4,1.58c-1.51,2.63-4.21,3.05-6.79,3.67
	c-0.37,0.09-0.76,0.03-1.12-0.12c-0.97-0.39-1.12-1.13-0.21-1.64c1.59-0.88,2.59-2.29,3.64-3.67c1.11-1.45,2.52-2.33,4.4-2.47
	c1.26-0.09,2.48-0.5,3.35-1.5c1.18-1.36,2.56-2.51,3.81-3.79c2.39-2.47,3.41-5.67,4.38-8.82c0.58-1.89,1.11-3.86,0.95-5.92
	c-0.07-0.89,0.39-1.68,0.98-2.36c1.8-2.06,2.49-4.34,1.77-7.09c-0.58-2.2,1.27-4.61,3.58-4.88c1.47-0.17,2.52-0.82,3.3-2.08
	c0.92-1.49,1.61-3.07,2.2-4.71c0.55-1.53,2.66-2.1,3.82-0.95c0.53,0.52,1.05,0.85,1.79,0.99c3.16,0.58,5.14,2.64,6.54,5.38
	c0.47,0.93,0.12,1.45-0.88,1.58c-0.81,0.1-1.62,0.21-2.38,0.53c-0.81,0.34-1.42,0.9-1.31,1.85c0.12,0.99,0.83,1.5,1.76,1.65
	c0.7,0.12,1.42,0.11,2.11-0.06c1.96-0.48,3.98-0.56,5.95-0.97c1.6-0.33,3.13,0.08,4.62,0.62c0.58,0.21,1,0.62,1.26,1.21
	c0.88,1.99,1.74,3.99,1.71,6.22c-0.02,1.34,0.46,2.06,1.93,1.86c1.1-0.15,2.01,0.31,2.77,1.1c1.7,1.1,3.13,2.48,4.39,4.07
	c2.63,3.32,6.32,5.28,9.89,7.32c4.3,2.46,7.78,5.71,10.22,10.01c1.92,3.37,5.17,4.88,8.99,4.29c2.47-0.38,4.35-1.89,6.51-2.86
	c0.24-0.11,0.43-0.33,0.61-0.53c0.69-0.75,1.03-1.57,0.32-2.48c-0.7-0.89-1.53-0.82-2.46-0.33c-1.67,0.88-3.26,1.91-5.13,2.44
	c-3.47,0.98-5.69-1.58-6.35-4.04c-0.22-0.83-0.46-1.54-1.16-2.06c-0.49-0.37-0.86-0.85-0.98-1.46c-0.45-2.35-2.19-3.67-3.93-4.99
	c-0.8-0.61-1.72-0.9-2.74-0.86c-0.88,0.03-1.74-0.13-2.49-0.62c-0.65-0.42-0.96-1.03-0.84-1.81c0.11-0.77,0.68-1.07,1.35-1.23
	c1.29-0.31,2.57-0.47,3.73,0.44c2.16,1.68,4.89,2.02,7.29,3.12c0.35,0.16,0.78,0.26,1.11,0.04c1.06-0.7,2.36-0.82,3.44-1.46
	c0.94-0.55,1.81-1.23,1.25-2.46c-0.52-1.15-1.5-1.28-2.62-0.84c-1.74,0.69-3.48,0.78-5.22-0.04c-0.62-0.3-1.19-0.7-1.21-1.41
	c-0.01-0.81,0.81-0.74,1.32-0.94c1.12-0.45,2.33-0.5,3.5-0.75c0.64-0.14,1.28-0.26,1.86-0.57c0.77-0.41,1.36-0.98,1.18-1.93
	c-0.17-0.9-0.82-1.37-1.73-1.47c-0.27-0.03-0.54,0.01-0.81-0.03c-0.41-0.05-0.78-0.23-0.75-0.69c0.02-0.38,0.42-0.47,0.74-0.52
	c1.98-0.35,3.9-0.96,5.86-1.37c2.26-0.48,3.97-1.91,5.75-3.24c0.35-0.26,0.63-0.6,1.04-0.78c1.71,0,2.99,1.14,4.47,1.74
	c0.71,0.29,1.37,0.66,2.16,0.63c2.65-0.07,4.31,1.34,5.9,3.36c1.62,2.06,3.56,3.99,6.19,4.88c1.16,0.39,2.19,0.9,2.98,1.89
	c0.7,0.88,1.59,1.16,2.56,0.39c0.92-0.73,0.72-1.61,0.22-2.49c-0.67-1.17-1.66-2.09-2.86-2.59c-2.55-1.06-3.56-3.35-4.71-5.54
	c-0.36-0.68-0.67-1.35-1.21-1.91c-0.63-0.67-1.31-0.97-2.16-0.42c-0.75,0.48-1.43,0.36-2.08-0.22c-0.54-0.48-0.78-1.03-0.57-1.74
	c0.26-0.89,0.99-1,1.77-1.19c1.64-0.4,3.22-0.88,4.87,0.1c0.66,0.4,1.37-0.08,1.82-0.71c0.43-0.6,0.39-1.22,0-1.83
	c-0.55-0.88-1.43-1.32-2.35-1.67c-0.94-0.36-1.23-0.85-0.73-1.85c0.8-1.61,0.45-2.35-1.35-2.52c-4.44-0.43-8.25-2.63-12.28-4.2
	c-1.38-0.54-2.39-1.85-3.57-2.81c-1.16-0.93-2.18-0.92-3.4-0.12c-1.46,0.96-3.1,1.59-4.82,1.88c-1.68,0.29-3.24,0.83-4.82,1.46
	c-4.65,1.88-9.46,3.18-14.44,3.86c-1.22,0.17-2.4-0.08-3.56-0.25c-2.32-0.35-4.54-0.03-6.77,0.52c-1.65,0.4-3.04,0.29-4.09-1.39
	c-1.01-1.61-2.36-2.98-3.92-4.12c-0.48-0.35-0.97-0.75-1.27-1.26c-1.62-2.7-4.33-4.06-6.89-5.55c-1.47-0.86-2.6-1.88-3.33-3.44
	c-0.89-1.91-1.93-2.22-3.6-0.95c-1.47,1.12-3,1.64-4.83,1.57c-1.53-0.06-2.68,1.08-3.34,3.03c-0.63,1.85-1.75,2.33-3.47,1.41
	c-1.42-0.76-2.57-1.74-3.21-3.33c-0.84-2.09-1.87-2.49-3.98-1.79c-3.23,1.06-5.56-0.56-5.59-3.9c-0.01-1.63-0.02-3.26,0-4.9
	c0.01-1.21-0.06-2.33-0.84-3.39c-0.71-0.96-0.37-2.14,0.64-2.17c2.42-0.08,2.59-1.62,2.62-3.4c0.23-2.73,1.4-4.92,3.52-6.69
	c0.94-0.78,1.65-1.88,2.34-2.92c0.55-0.83,0.34-1.57-0.37-2.16c-0.72-0.6-1.56-0.77-2.43-0.3c-0.43,0.24-0.48,0.65-0.49,1.12
	c-0.05,1.51-0.82,2.04-2.03,1.16c-2.53-1.84-5.39-1.78-8.27-1.8c-0.84-0.01-1.66,0.12-2.29,0.69c-1.25,1.12-2.62,0.97-3.96,0.33
	c-2.42-1.16-4.6-2.75-6.43-4.68c-1.06-1.12-1.22-2.86-1.89-4.29c-0.74-1.57-1.05-1.64-2.2-0.28c-0.39,0.46-0.9,0.88-1.04,1.45
	c-0.71,2.95-2.92,4.75-5.02,6.63c-1.82,1.62-2.69,3.56-2.71,6.03c-0.03,3.93-1.13,7.67-2.31,11.4c-0.99,3.14-0.68,6.24,1.39,8.96
	c0.66,0.86,1.28,1.78,2.12,2.47c1.71,1.41,1.76,3.21,1.13,5.04c-0.67,1.94-2.13,3.19-4.21,3.4c-2.17,0.22-4.28,0.13-6.34-0.96
	c-2.84-1.5-6.06-1.78-9.2-1.8c-1.92-0.01-3.62,1.23-5.11,2.35c-2.96,2.21-4.63,4.98-4.33,9.05c0.31,4.27,0.56,8.57,0.46,12.87
	c-0.14,6.11,0.75,11.96,3.21,17.65c1.29,3,2.71,5.92,4.21,8.81c0.8,1.54,2.04,2.66,3.41,3.67c0.38,0.28,0.93,0.53,0.76,1.12
	c-0.14,0.49-0.69,0.47-1.11,0.51c-1.37,0.14-2.63,0.65-3.9,1.14c-2.21,0.86-3.53,0.18-4.12-2.13c-0.13-0.5,0-1.26-0.65-1.36
	c-0.73-0.11-1.09,0.61-1.46,1.13c-0.36,0.5-0.34,1.14-0.51,1.71c-0.65,2.1-1.93,2.99-4,2.77c-1.32-0.14-1.79-0.84-1.42-2.13
	c0.2-0.68,0.59-1.28,0.88-1.93c1.81-4.13,1.48-8.37,0.75-12.64c-0.21-1.25-0.24-2.49-0.06-3.73c0.14-0.96,0.04-1.87-0.49-2.67
	c-0.82-1.25-0.98-2.61-0.95-4.06c0.03-1.52-0.03-3.03-0.27-4.55c-0.25-1.56,0.19-3.18,0.62-4.63c0.52-1.75,0.86-3.53,0.88-5.28
	c0.02-3.21,0.94-6.38,0.55-9.55c-0.28-2.29,0.29-4.7-0.86-6.87c-0.08-0.14-0.14-0.32-0.13-0.47c0.34-3.43-1.36-6.31-2.58-9.31
	c-1.3-3.2-3.43-5.92-5.44-8.68c-0.54-0.74-0.98-1.58-1.7-2.17c-0.43-0.35-0.98-0.67-1.49-0.3c-0.54,0.4-0.25,0.99-0.03,1.49
	c0.2,0.45,0.5,0.84,0.86,1.18c1.95,1.82,2.93,4.27,4.25,6.51c0.35,0.6,0.44,1.29-0.11,1.81c-0.52,0.5-1.21,0.43-1.84,0.17
	c-0.75-0.3-1.13-0.99-1.57-1.61c-0.71-0.98-1.46-1.92-2.58-2.43c-0.7-0.32-1.12-0.24-1.05,0.73c0.18,2.78,1.69,5.13,2.37,7.75
	c3,2.55,3.98,6.56,6.69,9.34c1.75,1.78,2.51,4.04,2.66,6.5c0.04,0.64,0.14,1.46-0.57,1.74c-0.75,0.3-1.59,0.32-2.31-0.28
	c-0.5-0.42-0.94-1.4-1.7-0.82c-0.76,0.58-0.19,1.42,0.19,2.06c0.49,0.84,0.67,1.44-0.55,1.8c-1.03,0.3-0.9,1-0.18,1.55
	c0.69,0.53,1.41,1.02,2.01,1.65c1.34,1.41,1.62,3.08,0.66,4.76c-0.38,0.67-0.46,1.29-0.3,2.02c0.25,1.12,0.24,2.27,0.09,3.41
	c-0.12,0.94-0.64,1.05-1.34,0.48c-0.62-0.5-0.9-1.21-1.15-1.94c-2.21-6.38-4.11-12.82-4.57-19.61c-0.11-1.62-0.48-3.31-1.63-4.53
	c-1.22-1.29-1.61-2.92-2.27-4.45c-0.29-0.67-0.44-1.45-0.13-2.07c0.77-1.53,0.21-2.87-0.45-4.18c-1.04-2.07-1.68-4.16-1.38-6.56
	c0.38-3.03-0.58-5.95-1.54-8.75c-0.81-2.33-0.79-4.62-0.51-6.9c0.43-3.53,0.77-7.08,0.05-10.55c-0.8-3.85-0.56-7.69-0.46-11.53
	c0.08-3.09,0.35-6.16-0.04-9.27c-0.33-2.66,0.66-5.26,0.96-7.91c0.41-3.68,0.87-7.41,2.01-10.91c1.17-3.59,1.79-7.32,3.05-10.88
	c1.4-3.94,2.29-8.05,3.85-11.95c0.53-1.32,0.82-2.68,0.87-4.12c0.1-2.64,1.18-4.94,2.76-7.03c3.01-3.97,5.99-7.96,8.78-12.09
	c3.37-5,7.1-9.67,11.31-14.02c5.12-5.3,11.14-9.3,17.28-13.23c7.09-4.54,14.79-7.81,22.52-11c3.34-1.38,6.77-2.57,10.36-3.37
	c3.38-0.75,6.75-1.58,10.16-2.23c1.77-0.34,3.63-0.55,5.34-0.37c3.75,0.38,7.47-0.43,11.22,0.11c3.7,0.54,7.42,0.95,11.04,1.89
	c4.57,1.18,9.12,2.54,13.4,4.53c4.77,2.22,9.85,3.66,14.48,6.25c4.74,2.66,9.74,4.98,13.87,8.5c3.01,2.57,6.22,4.87,9.17,7.54
	c5.49,4.96,9.01,11.32,13.11,17.28c0.49,0.72,0.83,1.6,1.57,2.06c1.92,1.2,2.81,3.12,3.69,5.04c2.01,4.46,4.3,8.79,5.88,13.44
	c0.84,2.48,1.54,5,2.1,7.54c1.1,4.98,3.16,9.74,3.6,14.88c0.2,2.33,0.16,4.67,0.46,6.99c0.09,0.7,0.01,1.45,0.36,2.07
	c0.97,1.75,1,3.63,0.97,5.55c-0.03,1.9-0.12,3.81,0.25,5.7c0.12,0.64,0.17,1.34-0.09,1.94c-0.67,1.55-0.48,3.09-0.15,4.65
	c0.77,3.62,1.08,7.31,1.74,10.95c0.57,3.14,0.35,6.41,0.06,9.6c-0.22,2.4-0.2,4.78-0.1,7.17c0.02,0.38,0.06,0.76,0.22,1.11
	c0.29,0.62,0.7,1.16,1.46,1.1c0.78-0.06,0.85-0.73,0.92-1.33c0.65-5.57,1.1-11.16,0.3-16.74c-0.39-2.77-0.24-5.54-0.29-8.31
	c-0.02-1.09-0.05-2.17-0.43-3.21c-0.34-0.94-0.32-1.95-0.2-2.91c0.71-5.63,0.03-11.18-0.81-16.72c-0.61-4.03-1.21-8.06-2.35-12
	c-0.7-2.4-1.03-4.91-1.23-7.4c-0.42-5.3-2.29-10.18-4.3-14.99c-1.87-4.46-3.62-8.99-6.03-13.2c-2.46-4.3-5.08-8.48-8.96-11.73
	c-1.66-1.39-3.1-3.04-4.51-4.71c-6.02-7.1-12.98-13.13-20.93-17.98c-2.31-1.41-4.77-2.6-7.29-3.65c-4.52-1.87-9.03-3.74-13.58-5.53
	c-6.36-2.5-12.73-4.93-19.39-6.47c-4.57-1.06-9.23-1.28-13.91-1.23c-3.15,0.03-6.32-0.05-9.44,0.35c-2.35,0.3-4.7,0.45-7.06,0.99
	c-2.7,0.62-5.28,1.61-8.01,2.12c-3.16,0.59-6.05,2.08-9.05,3.22c-3.45,1.31-6.91,2.6-10.45,3.65c-2.95,0.87-5.67,2.2-8.35,3.63
	c-2.58,1.38-5.07,2.91-7.5,4.57c-3.98,2.72-7.41,6.03-10.72,9.47c-3.06,3.17-5.74,6.68-8.53,10.07c-3.38,4.11-6.36,8.54-9.65,12.73
	c-3.97,5.06-6.7,10.8-9.27,16.61c-1.27,2.87-2.94,5.58-3.86,8.59c-1.37,4.51-3.18,8.89-3.55,13.69c-0.18,2.42-0.46,4.87-1.05,7.25
	c-0.21,0.86-0.2,1.73-0.2,2.6c0.02,4.68-0.62,9.32-0.82,13.99c-0.05,1.21,0.1,2.39,0.2,3.57c0.26,2.94-0.12,5.86-0.02,8.79
	c0.2,5.97,0.63,11.93,0.88,17.9c0.09,2.22,0.18,4.46-0.08,6.67c-0.11,0.96,0.26,1.83,0.21,2.75c-0.03,0.53,0.01,1.2-0.56,1.43
	c-0.59,0.24-1.05-0.26-1.35-0.69c-1.31-1.82-3.09-3.02-5.01-4.09c-2.25-1.25-4.11-1.19-5.74,0.21c-1.94,1.67-2.72,4.15-1.64,6.32
	c1.99,4.03,2.04,8.39,2.55,12.7c0.65,5.45,0.88,10.94,1.96,16.34c0.31,1.55,0.55,3.1,0.63,4.68c0.12,2.53,1.09,4.87,1.68,7.29
	c1.34,5.45,2.56,10.9,3.1,16.5c0.1,1.07-0.07,2-0.52,2.98c-3.03,6.69-3.08,13.24,1.08,19.55c2.33,3.53,5.35,6.59,6.95,10.6
	c0.41,1.03,0.76,2.01,0.77,3.13c0,2.38,0.5,4.64,1.68,6.73c1.18,2.08,1.77,4.29,1.58,6.72c-0.13,1.62-0.79,2.88-2.22,3.55
	c-6.15,2.87-11.28,7.34-17.09,10.73c-2.16,1.26-4.43,2.32-6.54,3.67C331.57,578.54,331.11,578.76,330.62,578.39z"/>
<path d="M330.62,578.39c4.07-2.05,7.94-4.44,11.8-6.84c4.18-2.6,7.9-5.93,12.52-7.84c2.94-1.21,2.82-3.72,2.18-6.8
	c-0.29-1.39-1.07-2.71-1.77-3.97c-0.84-1.51-1.17-3.18-1.16-4.8c0.02-4.34-2.37-7.58-4.83-10.67c-2.58-3.25-5.12-6.57-5.8-10.64
	c-0.8-4.76-0.6-9.63,2.07-13.98c0.36-0.58,0.39-1.13,0.33-1.69c-0.7-6.59-2.19-13.03-3.86-19.43c-1.23-4.71-1.74-9.55-2.3-14.37
	c-0.51-4.42-1.09-8.83-1.41-13.28c-0.21-3-0.38-6.13-1.62-8.94c-0.68-1.55-1.36-2.97-1.26-4.74c0.18-3.26,3.89-6.61,7.7-4.65
	c1.29,0.66,2.63,1.31,3.74,2.22c1.12,0.9,1.99,2.11,3.26,3.5c-0.06-1.12,0.15-1.82-0.19-2.68c-0.55-1.41,0.2-2.89,0.03-4.41
	c-0.17-1.64-0.11-3.4-0.11-5.11c0.01-3.47-0.15-6.93-0.42-10.38c-0.25-3.19-0.39-6.38-0.25-9.57c0.12-2.68-0.34-5.34-0.24-7.96
	c0.08-2.17-0.03-4.4,0.4-6.59c0.38-1.9,0.36-3.89,0.36-5.79c0-3.69,0.65-7.28,1.1-10.89c0.46-3.65,0.89-7.3,2.23-10.79
	c1.43-3.74,2.51-7.58,4.46-11.16c1.17-2.15,2.08-4.56,3.1-6.86c1.7-3.87,3.77-7.55,6.36-10.93c1.96-2.56,3.77-5.22,5.7-7.8
	c1.97-2.62,3.83-5.34,6.04-7.74c2.96-3.22,5.31-6.99,8.57-9.91c3.28-2.93,6.38-6.03,10.15-8.49c4.41-2.87,8.91-5.52,13.81-7.3
	c2.93-1.07,5.92-2.1,8.93-3.02c2.84-0.87,5.6-2.03,8.36-3.18c1.55-0.64,3.07-1.22,4.77-1.33c1.5-0.1,2.74-1.05,4.21-1.38
	c3.15-0.72,6.33-1.47,9.52-1.64c1.67-0.09,3.36-0.36,5.07-0.26c3.95,0.23,7.9,0,11.88,0.25c4.19,0.26,8.1,1.43,12.12,2.32
	c3.44,0.76,6.54,2.48,9.89,3.45c4.69,1.35,9.06,3.49,13.57,5.27c5.73,2.25,11.38,4.81,16.39,8.48c2.56,1.87,4.89,4.05,7.39,5.99
	c5.01,3.89,8.49,9.27,13.17,13.46c5.96,5.34,9.61,12.08,12.72,19.3c1.68,3.88,3.36,7.77,4.86,11.72c1,2.63,1.68,5.38,1.96,8.23
	c0.41,4.2,1.32,8.31,2.33,12.41c0.93,3.78,1.34,7.67,1.9,11.52c0.55,3.8,0.68,7.61,0.64,11.43c-0.01,0.98-0.59,1.89-0.33,2.87
	c1.34,5,0.34,10.17,1.15,15.25c0.55,3.45,0.46,7.12-0.14,10.69c-0.25,1.47-0.04,3-0.34,4.5c-0.18,0.93,0.19,2.08-1.36,2.05
	c-1.14-0.02-2.24-1.1-2.19-2.32c0.11-2.75,0.02-5.49,0.21-8.25c0.28-4.01,0.32-8.07-0.64-12.09c-0.77-3.21-1.1-6.52-1.51-9.8
	c-0.12-0.91-0.25-1.9,0.49-2.79c0.3-0.36,0.25-1.19,0.1-1.74c-0.52-1.87-0.29-3.77-0.27-5.65c0.01-2.01-0.26-3.86-1.03-5.78
	c-0.63-1.58-0.6-3.48-0.6-5.24c-0.01-4.28-0.94-8.34-2.21-12.42c-1.14-3.65-1.93-7.42-2.97-11.11c-1.17-4.15-2.77-8.12-4.75-11.93
	c-0.89-1.71-1.45-3.55-2.46-5.21c-0.67-1.11-0.99-2.3-2.32-3.04c-1.98-1.1-2.71-3.4-3.76-5.23c-1.02-1.78-2.39-3.23-3.52-4.88
	c-1.17-1.72-2.47-3.36-3.48-5.18c-0.63-1.15-1.31-2.23-2.55-2.81c-0.29-0.13-0.59-0.3-0.81-0.52c-2.29-2.28-4.98-4.12-7.31-6.26
	c-3.53-3.24-7.48-5.67-11.52-8.07c-4.39-2.61-8.86-5.03-13.7-6.75c-2.64-0.94-5.18-2.16-7.73-3.35c-2.08-0.97-4.45-1.42-6.64-2.26
	c-2.88-1.11-5.94-1.54-8.9-2.34c-1.84-0.5-3.79-0.61-5.68-0.86c-2.93-0.39-5.9-0.58-8.86-0.07c-1.74,0.3-3.45-0.27-5.26-0.09
	c-4.52,0.45-8.93,1.19-13.3,2.48c-2.17,0.64-4.46,0.91-6.56,1.85c-2.07,0.93-4.34,1.33-6.33,2.53c-0.94,0.57-2.16,0.65-3.15,1.14
	c-4.65,2.31-9.54,4.14-13.97,6.85c-4.79,2.93-9.48,6.01-13.98,9.42c-3.91,2.96-6.97,6.69-10.41,10.07
	c-1.59,1.55-3.16,3.22-4.11,5.07c-1.6,3.13-4.47,5.37-5.67,8.7c-0.15,0.43-0.76,0.49-0.98,0.8c-2.42,3.37-5.07,6.59-7.11,10.21
	c-0.6,1.07-1.02,2.32-0.93,3.53c0.2,2.49-0.98,4.59-1.69,6.82c-1.18,3.7-2.51,7.36-3.28,11.19c-0.24,1.16-0.81,2.27-1.32,3.36
	c-0.17,0.36-0.36,0.7-0.27,1.06c0.55,2.23-1.15,3.82-1.66,5.74c-0.1,0.4-0.31,0.77-0.31,1.21c-0.02,1.54,0.33,3-0.8,4.53
	c-0.59,0.8-0.19,2.49-0.44,3.8c-0.4,2.04-0.5,4.12-0.96,6.17c-0.26,1.15-0.17,2.44,0.17,3.69c0.51,1.87,0.08,3.82,0.02,5.73
	c-0.14,4.15-0.54,8.26,0.21,12.44c0.52,2.92,0.85,5.93,0.28,8.99c-0.43,2.32-0.48,4.76-0.36,7.13c0.08,1.54,0.82,3.06,1.31,4.53
	c0.85,2.52,1.13,5.06,0.81,7.58c-0.18,1.46,0.4,2.55,0.72,3.76c0.34,1.29,1.07,2.49,1.73,3.68c0.3,0.53,0.25,0.85-0.1,1.29
	c-0.88,1.11-0.48,2.18-0.16,3.46c0.66,2.7,3.25,4.32,3.59,7.21c0.17,1.42,0.23,2.88,0.41,4.3c0.38,2.99,1.38,5.81,1.88,8.74
	c0.49,2.83,1.85,5.35,2.49,8.1c0.2,0.86,0.92,1.37,1.66,2.39c-0.08-2.01,0.26-3.63-0.42-5.15c-0.22-0.48-0.15-0.82,0.08-1.18
	c1.65-2.6,1.29-4.36-1.58-5.86c-1.06-0.56-1.57-1.05-1.35-2.15c0.24-1.22,1.34-0.24,1.92-0.83c-0.42-0.64-0.85-1.4-1.15-2.24
	c-0.27-0.79,0.04-1.36,0.54-1.68c0.46-0.29,1.17-0.28,1.63,0.29c0.23,0.29,0.44,0.61,0.65,0.92c0.53,0.78,1.31,0.27,1.95,0.31
	c0.58,0.04,0.31-0.68,0.3-1.03c-0.13-2.5-0.84-4.77-2.67-6.61c-1.96-1.96-3.07-4.5-4.44-6.85c-0.13-0.22-0.1-0.61-0.27-0.73
	c-3.14-2.03-3.23-5.48-4.03-8.6c-0.12-0.46-0.39-0.88-0.55-1.34c-0.17-0.49-0.15-0.95,0.28-1.34c0.47-0.42,0.8-0.16,1.29,0.06
	c1.39,0.62,2.37,1.61,3.16,2.87c0.28,0.45,0.61,0.89,0.96,1.29c0.55,0.62,1.44,0.64,1.9,0.23c0.46-0.41,0.21-1.18-0.35-1.69
	c-0.35-0.32-0.71-0.61-0.82-1.16c-0.44-2.18-2.1-3.55-3.49-5.1c-0.28-0.32-0.49-0.71-0.69-1.09c-0.41-0.79-0.71-1.66-0.07-2.42
	c0.41-0.48,2.41,0.21,2.87,0.91c2.01,3.09,4.62,5.84,6.03,9.26c1.32,3.2,3.65,6.14,3.15,9.94c-0.07,0.56,0.12,1.05,0.35,1.56
	c0.36,0.78,0.63,1.57,0.65,2.47c0.06,2.34,0.62,4.75,0.2,6.98c-0.51,2.68-0.37,5.36-0.67,8.02c-0.3,2.7-1.41,5.31-1.42,7.96
	c0,2.45-0.58,5.32,0.44,7.31c1.37,2.66,0.65,5.23,1.21,7.74c0.59,2.6,0.34,5.16,0.56,7.72c0.24,2.75-0.77,5.1-2.06,7.4
	c-0.67,1.19-0.29,1.94,1.01,1.96c2.15,0.03,3.56-1.17,3.67-3.33c0.07-1.45,1.08-1.99,2.05-2.66c0.43-0.29,0.64-0.17,0.88,0.26
	c0.28,0.5,0.27,1.02,0.32,1.56c0.2,1.96,1.74,2.8,3.49,2.02c1.59-0.7,3.24-1.31,5.13-1.31c-4.33-2.06-5.75-6.38-7.41-10.12
	c-1.71-3.84-3.54-7.82-4.07-12.11c-0.46-3.76-0.17-7.58-0.45-11.35c-0.29-3.93-0.01-7.87-0.52-11.8c-0.28-2.17,0.81-4.1,2.06-5.87
	c1.68-2.38,4.32-3.47,6.78-4.57c1.72-0.77,3.83,0.1,5.74,0.3c2.23,0.24,4.28,1.43,6.41,2.07c3.65,1.09,6.69,0.77,8.32-2.72
	c0.78-1.66,0.3-3.11-0.96-4.43c-2.15-2.25-4.38-4.67-4.17-8c0.11-1.75,0.46-3.6,0.9-5.39c0.58-2.36,1.91-4.63,1.67-7.26
	c-0.16-1.73,0.13-3.54,0.48-5.27c0.55-2.76,2.89-4.23,4.8-5.95c0.87-0.78,1.67-1.48,1.92-2.68c0.35-1.64,1.44-2.87,2.44-4.12
	c0.67-0.84,1.73-0.62,2.02,0.43c0.42,1.55,1.68,2.79,1.66,4.51c0,0.21,0.25,0.48,0.46,0.63c1.8,1.36,3.54,2.81,5.44,4.01
	c1.42,0.9,2.88,1.52,4.62,0.05c1.69-1.42,3.96-0.54,5.96-0.53c1.87,0.01,3.67,0.57,5.1,1.95c0.31,0.3,0.66,0.33,1.04,0.11
	c0.57-0.33,0.05-0.58-0.02-0.89c-0.18-0.71-0.23-1.48,0.59-1.82c1.13-0.48,2.35-0.53,3.27,0.35c0.88,0.84,1.43,1.75,0.31,3.05
	c-0.79,0.92-1.38,2.13-2.29,2.89c-2.04,1.71-3.27,3.73-3.49,6.37c-0.11,0.04-0.22,0.09-0.24,0.19c-0.33,2.15-0.59,2.36-2.86,2.3
	c-2.09-0.06-2.14-0.02-2.5,2.05c-0.11,0.65-0.41,1.24-0.51,1.89c-0.23,1.49,0.34,2.32,1.8,2.16c1.55-0.18,1.91,0.4,1.76,1.79
	c-0.15,1.37,0.22,2.77-0.75,4.06c-0.58,0.78-0.07,3.2,0.5,3.67c1.07,0.89,3.32,1.02,4.42,0.26c1.21-0.83,2.59-0.26,2.64,1.24
	c0.04,1.23,0.4,1.96,1.63,2.23c0.61,0.13,0.85,0.64,0.96,1.2c0.19,0.99,0.87,1.33,1.79,1.29c1.83-0.08,3.63-0.47,5.51-0.19
	c1.1,0.17,1.66-0.76,1.6-2.15c-0.04-0.92-0.33-1.82-0.05-2.75c0.29-0.97,0.71-1.52,1.7-0.69c0.55,0.46,1.17,0.48,1.84,0.39
	c1.3-0.17,2.6-0.14,3.9,0.02c1.03,0.13,1.92,0.42,2.07,1.67c0.05,0.45,0.34,0.83,0.8,0.95c2.37,0.6,3.42,2.53,4.51,4.42
	c0.2,0.34,0.4,0.7,0.79,0.78c1.66,0.32,2.33,1.88,3.51,2.8c0.85,0.66,0.49,1.2-0.39,1.5c-0.47,0.16-0.96,0.14-1.45,0.19
	c-1.21,0.13-2.3,0.39-2.19,2c0.05,0.67-0.43,0.81-0.97,0.79c-1.1-0.04-1.9,0.3-2.14,1.52c-0.23,1.16-1.19,0.86-1.97,0.91
	c-0.82,0.05-1.71,0.22-2.01-0.87c-0.23-0.82-0.65-1.31-1.54-1.44c-0.85-0.13-1.04-0.86-1.16-1.58c-0.18-1.04-0.82-1.58-1.83-1.42
	c-2.17,0.35-4.31,0.03-6.46-0.06c-2.67-0.11-3.15,0.36-3.15,3.01c0,1.05-0.24,1.94-1.26,2.45c-0.1,0.05-0.22,0.09-0.27,0.17
	c-1.25,1.86-2.88,2.71-5.21,2.31c-0.91-0.15-1.11,0.81-1.16,1.64c-0.11,1.86,0.38,3.67,0.36,5.53c-0.02,1.6-0.07,3.02-1.9,3.69
	c-0.78,0.29-1.06,1.08-0.93,1.91c0.13,0.87,0.01,1.74,0.05,2.61c0.05,1.3-0.29,2.37-1.65,2.85c-0.84,0.3-1.1,0.99-1.12,1.81
	c-0.03,1.09,0,2.17,0.12,3.26c0.14,1.27-0.47,2.11-1.35,3.09c-1.34,1.48-3.55,2.05-4.23,4.16c-0.15,0.46-0.62,0.58-1.04,0.69
	c-0.69,0.19-1.17,0.6-1.32,1.3c-0.23,1.09-1.01,1.35-1.96,1.29c-1.39-0.09-2.17,0.74-3.19,1.55c-1.69,1.34-2.36,3.65-4.5,4.51
	c-0.6,0.24-0.77,0.88-0.78,1.51c-0.01,0.49,0.13,0.97,0.17,1.46c0.25,2.51,0.25,2.52,2.88,2.52c1.3,0,2.61-0.01,3.91,0
	c0.97,0.01,1.72-0.25,1.92-1.33c0.03-0.16,0.05-0.4,0.16-0.45c1.65-0.74,2.21-2.69,3.79-3.46c0.65-0.32,1.11-0.69,1.15-1.42
	c0.06-1.02,0.64-1.56,1.57-1.83c0.5-0.14,0.89-0.44,1.06-0.94c0.25-0.76,0.72-1.1,1.54-1.2c1.05-0.14,1.05-0.78,0.46-1.5
	c-0.39-0.46-0.84-0.89-0.53-1.58c1.45-0.97,2.43-2.13,2.06-4.08c-0.17-0.9,0.38-1.59,1.24-2.08c1.07-0.61,1.98,0.12,2.96,0.21
	c0.27,0.02,0.28,0.42,0.28,0.7c-0.03,2.84,0.38,5.74-1.76,8.16c-0.76,0.86-0.41,2.17-0.79,3.24c-0.12,0.32,0.31,0.53,0.67,0.51
	c0.51-0.03,0.78,0.18,0.98,0.65c0.29,0.68-0.19,4.39-0.52,5.01c-0.62,1.18-1.62,2.29-0.66,3.84c0.29,0.47,0.49,1.39-0.67,1.6
	c-0.58,0.11-1.52,0.45-1.13,1.25c0.76,1.58-0.33,2.28-1.19,3.13c-2.26,2.23-3.08,2.01-3.89-1.02c-0.06-0.24-0.1-0.48-0.19-0.97
	c-0.87,1.04-1.59,1.98-2.39,2.85c-0.84,0.91-1.66,1.85-2.75,2.5c-2.01,1.2-3.14,3.29-4.76,4.87c-1.6,1.55-2.5,3.57-4.05,5.12
	c-0.84,0.84-0.47,3.35,0.69,4.57c0.74,0.78,0.76,1.62,0.28,2.35c-1.44,2.2-2.36,4.74-4.46,6.51c-0.85,0.71-0.82,1.93-0.77,2.84
	c0.15,2.45,0.57,4.88,0.98,7.3c0.13,0.76,0.88,1.05,1.54,0.73c1.66-0.8,2.56,0.09,3.21,1.39c0.45,0.91,1.18,1.65,1.33,3.04
	c1.06-1.39,2.1-1.7,3.41-1.12c0.37,0.16,0.89,0.27,1.01-0.68c0.2-1.68,2.12-1.86,3.18-2.81c0.45-0.41,1.15,0.21,1.27,1.02
	c0.36,2.36,0.33,4.63-0.6,6.93c-0.71,1.76-0.61,3.69-0.09,5.56c0.08,0.29,0.17,0.51,0.66,0.54c-0.14-1.58,0.56-2.96,1.12-4.37
	c0.55-1.38,1.52-1.54,2.75-1.03c0.4,0.17,0.78,0.37,1.17,0.57c0.29,0.15,0.58,0.33,0.86,0.01c0.28-0.32,0.07-0.63-0.08-0.9
	c-0.66-1.15-1.62-2.07-2.8-2.56c-1.69-0.7-2.03-2.06-1.6-3.44c1.08-3.49-0.17-6.46-1.7-9.41c-0.3-0.58-0.13-1.02,0.03-1.5
	c0.8-2.47,1.86-4.81,3.63-6.75c1.16-1.28,1.65-2.88,2.23-4.42c0.48-1.28,1.29-2,2.68-1.83c1.12,0.14,2.64,1.76,2.47,2.78
	c-0.29,1.85-0.32,3.8-2.54,4.8c-1.06,0.47-1.79,1.92-1.23,3.07c0.91,1.86-0.26,3.2-0.9,4.53c-0.46,0.96-0.53,1.58,0.05,2.29
	c0.5,0.62,1.1,1.19,1.72,1.68c0.93,0.74,0.98,2.07-0.1,2.59c-1.07,0.51-2.37,1.27-2.12,2.27c0.27,1.08,1.84,0.83,2.91,0.76
	c1.35-0.09,2.11,0.62,2.17,1.82c0.1,1.76,0.36,3.57-0.48,5.27c-0.85,1.7-0.4,3.52-0.33,5.28c0.02,0.41,0.04,1.64,0.99,1.27
	c0.5-0.19,0.92-1.31,0.47-1.85c-1.03-1.23-0.35-2.21,0.16-3.27c0.36-0.76,0.71-1.37,1.77-1.36c1.12,0.01,1.32,0.71,1.57,1.5
	c0.06,0.2,0.2,0.38,0.31,0.57c0.83-1.08,0.27-2.02-0.32-2.88c-0.73-1.06-1.54-2.07-2.38-3.05c-0.32-0.38-0.4-0.77-0.35-1.2
	c0.21-1.56,0.38-3.11,0.81-4.66c0.4-1.44,0.32-2.97,1.75-3.93c0.24-0.16,0.15-0.39,0.02-0.56c-0.17-0.23-0.43-0.34-0.72-0.2
	c-0.71,0.35-1.43,0.68-2.03-0.14c-0.68-0.94-1.16-2.14-0.74-3.16c0.88-2.18,0.69-4.44,0.91-6.67c0.19-1.82,1.93-4.11,3.51-4.54
	c1.56-0.43,2.18,0.07,2.33,1.67c0.16,1.75-0.3,3.44-0.43,5.15c-0.05,0.72-0.15,1.32,0.19,1.97c0.12,0.23,0.3,0.62,0.2,0.74
	c-0.98,1.21,0.18,1.9,0.62,2.78c0.57,1.16,1.14,2.27,1.1,3.67c-0.03,0.97,0.64,1.93,1.35,2.59c1.17,1.09,1.11,2.56,0,4.36
	c-0.19,0.31-0.73,0.51-0.55,0.92c0.88,2.08-0.2,3.88-0.9,5.64c-0.66,1.65-0.56,3.26-0.6,4.89c0.25,0.15,0.33,0.06,0.35-0.12
	c0.02-0.16-0.01-0.33,0.03-0.49c0.62-2.42,4.2-5.54,6.66-5.81c1.56-0.17,2.79,0.85,3.55,2.9c0.31-1.29,0.38-1.34-0.01-1.85
	c-1.84-2.39-1.81-5.32-2.36-8.08c-0.05-0.26,0.06-0.68-0.08-0.79c-1.59-1.22-1.33-2.53-0.47-4.09c0.61-1.1,1.61-1.78,2.52-2.36
	c0.61-0.38,0.58-0.75,0.71-1.17c0.23-0.77-0.41-0.52-0.78-0.63c-0.61-0.18-1.05-0.42-1.36-1.16c-0.55-1.36-1.31-2.53-2.94-3.17
	c-1.34-0.53-1.34-2.29-1.53-3.65c-0.31-2.23,0.9-4.01,2.06-5.64c1.31-1.84,3.01-3.4,5.28-4.11c1.42-0.44,2.16-0.03,2.39,1.34
	c0.11,0.65,0.44,0.93,1.03,1.24c1.65,0.86,1.74,2.22,0.44,3.61c-0.64,0.68-1.38,1.22-2.16,1.69c-0.53,0.32-0.97,0.71-1.33,1.17
	c-0.49,0.63-1.01,1.52-0.74,2.18c0.36,0.87,1.22,0.04,1.86,0.05c1.31,0.02,2.58-0.46,3.95-0.06c1.55,0.45,2.55,2.21,1.76,3.68
	c-0.45,0.84,0.09,1.78-0.33,2.53c-1.03,1.87-0.96,3.54,0.3,5.34c0.39,0.56,0.93,1.64,0.14,2.62c0.84-0.77,1.37-1.87,2.61-1.7
	c1.37,0.18,2.54,0.85,3.5,1.86c1.57,1.65,2.59,3.5,3.13,5.82c1.04,4.48,3.05,5.78,8.29,6.41c2.95,0.35,5.43-0.25,7.93-1.72
	c1.83-1.08,3.84-0.46,5.68,0.23c0.71,0.27,1.12,1.01,0.65,1.9c-0.31,0.6-0.25,1.18,0.33,1.58c0.65,0.45,1.17,0.17,1.73-0.31
	c0.85-0.74,1.77-1.4,2.69-2.05c0.65-0.47,1.52-0.85,2.17-0.41c1.18,0.8,2.89,1.25,2.96,3.07c0.03,0.73-0.67,0.82-1.31,0.85
	c-2.17,0.1-3.73,0.98-3.99,2.93c-0.25,1.87-1.63,2.83-2.76,3.36c-2.07,0.97-3.71,2.58-5.82,3.44c-1.06,0.43-2.01,0.58-2.86-0.21
	c-0.9-0.83-0.98-1.85-0.38-2.95c0.46-0.83,0.48-2.17,2.07-1.39c0.31,0.15,0.7-0.39,0.81-0.86c0.39-1.59-0.45-2.97-2.1-3.37
	c-2-0.49-4.02-1.34-5.83,0.58c-0.33,0.35-1.11,0.39-1.69,0.39c-1.63-0.01-3.18,0.63-4.71,0.76c-2.08,0.17-4.37,1.35-6.47-0.5
	c-0.68-0.59-2.06-0.61-3.09-0.52c-2.12,0.18-4.22,0.61-6.33,0.92c-1.08,0.16-1.31,0.8-1.04,1.76c0.3,1.08,0.55,2.17,0.88,3.23
	c0.69,2.22,1.93,2.86,4.23,3.3c2.24,0.43,4.69,0.73,6.33,2.69c0.31,0.37,0.73,0.78,0.77,1.2c0.31,3.26,2.63,5.81,3.09,9.02
	c0.07,0.51,0.42,1,0.7,1.46c1.66,2.71,1.36,3.91-0.66,6.44c-0.93,1.16-1.86,0.87-2.87,0.94c-1.19,0.08-2.08-0.4-3.17-1.08
	c-4.32-2.71-8.42-6.26-14.14-5.44c-1.76,0.25-2.9,1.91-2.51,3.71c0.64,2.93,1.24,3.38,4.11,3.89c1.53,0.27,2.34,1.79,3.53,2.69
	c2.62,1.97,4.15,4.88,6.03,7.47c1.17,1.61,1.05,3.71,0.97,5.61c-0.05,1.11-1.04,1.88-2.21,2.09c-1.88,0.34-3.59,0.91-4.98,2.35
	c-0.76,0.79-1.88,0.92-2.85,0.3c-1.31-0.84-2.53-0.11-2.91,0.76c-0.76,1.75-2.23,1.8-3.61,2.11c-1.04,0.23-2.09,0.4-3.08,0.83
	c-0.71,0.31-1.47,0.4-2.12-0.18c-0.33-0.3-0.66-0.68-1.1-0.26c-0.4,0.38-0.29,0.92-0.1,1.35c0.51,1.16,2.56,1.76,3.49,0.92
	c0.9-0.81,1.47-0.71,2.35,0.03c1.1,0.93,3.36,0.59,4.56-0.32c0.99-0.75,2.28-0.22,3.43-0.62c1.43-0.5,2.84-0.33,4.31,0.43
	c1.49,0.77,2.87-0.53,4.22-1.05c5.73-2.22,11.41-4.56,17.21-6.6c1.62-0.57,3.15-1.39,4.74-2.02c5.05-2.01,10.05-4.12,14.75-6.88
	c1.89-1.11,3.22-2.81,4.66-4.38c1.52-1.66,2.79-3.56,4.34-5.2c1.06-1.12,1.84-2.37,2.65-3.65c2.03-3.25,4.83-5.79,7.8-8.17
	c1.09-0.87,2.27-1.73,2.46-3.35c0.1-0.83,2.44-2.27,3.29-2.22c0.24,0.02,0.37,0.18,0.44,0.4c0.69,2.14,1.02,4.04-0.58,6.2
	c-1.24,1.67-1.77,3.99-2.2,6.11c-0.43,2.12-1.45,3.96-2.4,5.78c-1.42,2.71-2.4,5.6-3.8,8.29c-1.24,2.38-2.16,4.96-3.7,7.16
	c-2.57,3.68-4.45,7.75-6.69,11.61c-1.41,2.43-3.15,4.47-5.24,6.3c-1.84,1.62-3.46,3.48-5.69,4.67c-0.82,0.44-1.59,0.56-2.45,0.56
	c-55.97,0-111.93,0-167.9,0C330.62,636.28,330.62,607.33,330.62,578.39z"/>
<path d="M582.56,603.34c-1.18-0.89-1.56-1.95-1.84-2.93c-0.23-0.79-0.48-1.56-0.89-2.23c-1.77-2.83-2.57-6.13-4.54-8.87
	c-2.35-3.25-4.04-7.02-7.63-9.24c-0.14-0.08-0.25-0.29-0.38-0.3c-3.71-0.26-6.06-3.8-9.77-4.08c-0.25-0.02-0.5-0.21-0.73-0.35
	c-1.79-1.05-1.63-1-2.34,1.07c-1.29,3.8-2.78,7.53-4.22,11.28c-0.57,1.49-0.97,3.02-1.84,4.43c-0.9,1.45-0.32,2.86,0.74,4.13
	c1.58,1.88,3.46,2.74,5.82,1.71c1.16-0.51,1.89-0.01,2.53,0.76c2.78,3.33,4.79,7.07,5.81,11.32c0.72,2.99,0.9,6.03,1.04,9.1
	c0.08,1.66,0.69,3.34,1.26,4.94c1.17,3.29,0.99,6.6,0.7,10.01c-0.45,5.31-2.13,10.33-3.2,15.49c-0.9,4.34-1.85,8.71-1.48,13.24
	c0.2,2.41,0.03,2.42-2.36,2.42c-10.01,0-20.01,0-30.02,0c-0.58,0-1.16,0-1.76,0c0.03-1.37,0.62-2.47,1.06-3.49
	c1.44-3.29,1.73-6.81,2.43-10.24c0.32-1.58,0.7-3.17,1.25-4.61c0.99-2.58,0.91-5.26,1.42-7.87c0.61-3.14,0.46-6.48,1.89-9.39
	c1.05-2.13,1.64-4.32,2.13-6.58c0.48-2.21,0.75-4.45,1.09-6.66c0.45-3.02,0.68-6.06,0.98-9.08c0.17-1.77,0.32-3.65-0.15-5.46
	c-0.32-1.25,0.3-2.4,0.72-3.4c0.73-1.74,0.97-3.61,1.73-5.33c0.99-2.24,1.82-4.55,2.76-6.81c1.6-3.83,3.67-7.44,5.07-11.36
	c2.07-5.78,4.63-11.37,6.46-17.24c1.17-3.78,1.87-7.65,2.47-11.55c0.62-4,1.24-8,2.37-11.91c1.19-4.14,2.6-8.27,3.07-12.54
	c0.39-3.55,0.09-7.17,0.1-10.76c0.01-2.53-0.17-5.03-1.1-7.44c-0.53-1.38,0.07-2.56,1.35-3c1.14-0.4,2.31,0.24,2.88,1.45
	c1.07,2.29,1.29,4.75,1.37,7.21c0.1,2.88-0.08,5.77,0.05,8.65c0.22,4.97-1.13,9.64-2.43,14.35c-0.79,2.87-1.49,5.75-1.96,8.73
	c-0.47,2.98-1.23,5.94-1.64,8.94c-0.49,3.61-1.55,7.09-2.56,10.55c-0.71,2.43-1.76,4.79-2.59,7.21c-0.61,1.78-0.1,2.95,1.62,3.68
	c4.23,1.79,8.52,3.46,12.99,4.5c3.56,0.83,5.9,3.05,7.6,6.06c0.92,1.64,1.63,3.4,2.41,5.12c0.15,0.33,0.24,0.72,0.24,1.09
	C582.57,593.03,582.56,598.03,582.56,603.34z"/>
<path d="M520.27,490.68c-1.76,1.7-3.55,3.21-6.06,3.87c-2.34,0.62-4.67,1.23-7.09,1.68c0.21,0.69,0.69,0.24,1.03,0.23
	c1.32-0.07,2.25,0.53,2.53,1.78c0.29,1.28-0.34,2.26-1.57,2.66c-2.13,0.69-4.41,0.74-6.51,1.54c0.85,1.73,3.26,2.3,5.76,1.33
	c1.86-0.72,2.92-0.43,3.5,0.98c0.53,1.29-0.05,2.19-1.68,3.15c-1.02,0.61-2.42,0.34-3.22,1.5c-0.15,0.22-1.01,0.18-1.4-0.02
	c-2.71-1.4-5.84-1.8-8.36-3.66c-1.11-0.82-2.43-0.32-3.39,0.3c-0.82,0.53-0.44,1.48,0.37,1.94c0.69,0.39,1.47,0.66,2.31,0.58
	c1.74-0.17,2.91,0.77,4.22,1.82c1.63,1.3,2.63,2.76,2.97,4.77c0.06,0.38,0.38,0.69,0.76,0.78c0.98,0.25,1.23,1.13,1.32,1.85
	c0.23,1.99,1.31,3.22,3.01,4.09c1.54,0.79,2.96,0.06,4.3-0.41c1.24-0.44,2.34-1.31,3.48-2.02c1.12-0.69,2.22-0.66,3.07,0.33
	c0.91,1.05,0.89,2.38-0.21,3.17c-2.2,1.56-4.5,2.9-7.22,3.58c-2.79,0.7-5.03-0.49-7.41-1.36c-0.92-0.34-1.36-1.29-1.76-2.03
	c-1.76-3.35-4.06-6.24-7.07-8.48c-2.3-1.72-4.76-3.27-7.27-4.66c-2.83-1.56-5.13-3.64-7.1-6.16c-0.97-1.24-2.25-2.13-3.51-3.04
	c-0.16-0.33-0.05-0.64,0.1-0.93c0.4-0.82,0.13-1.36-0.69-1.66c-1.45-0.52-1.89-1.84-2-3.09c-0.1-1.03-0.4-1.76-1.15-2.36
	c-1.08-0.86-1.42-1.83-1.08-3.28c0.42-1.78,0.66-3.69-1.42-4.89c-0.78-0.45-0.73-1.32-0.07-1.78c1.17-0.81,1.54-1.87,1.51-3.2
	c-0.01-0.27,0.11-0.53,0.2-0.79c0.34-0.9,1.03-1.18,1.51-0.31c0.85,1.54,2.12,1.54,3.6,1.55c5.83,0.04,11.67-0.19,17.49,0.23
	c1.53,0.11,2.48-0.56,3.19-1.77c0.37-0.63,0.72-1.31,1.57-1.19c1.5,0.21,3.02-0.22,4.5,0.15c1.19,0.3,1.71-0.25,1.62-1.32
	c-0.1-1.16,0.35-1.43,1.45-1.55c2.45-0.28,4.85-0.53,7.22,0.39c0.46,0.18,1.05,0.2,1.42-0.11c1.59-1.37,2.94-0.04,4.37,0.32
	c0.32,0.08,0.58,0.35,0.63,0.7c0.18,1.39,1.16,1.58,2.27,1.5c1.47-0.1,2.92,0.3,4.39,0.06c0.5-0.08,0.86,0.07,1,0.58
	c0.15,0.52-0.18,0.81-0.58,1.03c-0.51,0.28-1.32,0.39-1.3,1.08c0.04,1.38-0.76,2.63-0.5,4.01c0.14,0.72,0.72,1.08,1.37,1.26
	c1.1,0.31,1.48,0.97,1.24,2.08c-0.27,1.24-0.07,2.49,0,3.74c0.04,0.69-0.08,1.42-0.84,1.57c-0.83,0.16-0.83-0.69-1.03-1.2
	c-0.7-1.74-1.33-1.99-2.88-0.97c-0.53,0.35-0.91,0.29-1.3-0.06C522.64,489.47,521.45,489.74,520.27,490.68z"/>
<path d="M520.27,490.68c1.47-1.88,2.42-1.88,4.27-0.03c1.8-2.15,2.89-1.66,4.35,1.96c0.42-0.08,0.74-0.36,0.7-0.76
	c-0.18-1.72-0.41-3.42,0.06-5.14c0.16-0.57-0.39-0.61-0.82-0.76c-2.08-0.74-2.42-1.47-1.79-3.57c0.15-0.51,0.51-1.01,0.32-1.57
	c-0.45-1.32,0.26-1.79,1.38-2c0.38-0.07,0.84-0.12,0.74-0.64c-0.14-0.7-0.61-0.25-1-0.25c-1.93-0.02-3.86-0.08-5.79-0.22
	c-0.56-0.04-1.13-0.58-1.01-1.11c0.27-1.11-0.51-1.18-1.14-1.31c-1.16-0.25-2.19-1.17-3.56,0.1c-1.05,0.97-2.52-0.42-3.83-0.58
	c-1.44-0.18-2.79,0.07-4.15,0.24c-0.54,0.07-1.05-0.02-1.66,0.01c0.05,0.54,0.2,1.07,0.13,1.57c-0.1,0.7-0.44,1.73-1.18,1.45
	c-1.4-0.52-2.77,0.03-4.11-0.29c-1.07-0.25-1.96-0.33-2.53,1c-0.84,1.97-2.64,2.21-4.5,1.92c-2.38-0.38-4.76-0.1-7.14-0.19
	c-3.75-0.13-7.52,0.07-11.28,0.04c-0.93-0.01-1.54-0.73-1.86-1.61c-0.11-0.32-0.23-0.67-0.62-0.63c-0.44,0.04-0.32,0.49-0.4,0.78
	c-0.1,0.36-0.35,0.78-0.25,1.09c0.4,1.32-0.24,2.01-1.27,2.64c-0.89,0.55-1.26,1.11,0.17,1.6c1.03,0.35,1.35,1.42,1.36,2.39
	c0.02,1.16,0.26,2.32-0.38,3.5c-0.39,0.73,0.3,1.48,0.98,2c0.9,0.69,1.66,1.31,1.39,2.78c-0.13,0.72,0.4,2.04,1.28,2.54
	c2.19,1.25,2.23,1.18,0.96,3.14c-0.87-1.13-2.12-1.44-3.33-1.04c-1.34,0.44-1.48-0.45-1.46-1.16c0.09-2.59-0.91-4.89-1.71-7.26
	c-0.18-0.52-0.61-0.76-1.07-0.91c-1.45-0.49-2.88-0.8-4.48-0.59c-2.54,0.34-5.04,1.05-7.62,1.03c-1.77-0.02-2.7-0.66-2.76-2.05
	c-0.06-1.48,0.73-2.31,2.2-2.47c0.05-0.01,0.13,0.02,0.16-0.01c0.76-0.71,2.52,0.17,2.51-0.68c-0.01-1.02-0.87-2.2-1.74-3.09
	c-1.54-1.58-3.23-2.81-5.57-2.8c-0.33,0-0.72,0-0.79-0.4c-0.23-1.28-0.89-1.17-1.99-1c-1.08,0.16-1.1,0.55-1.47,1.43
	c-1.07,2.51-1.56,5.56-4.65,6.71c-0.23,0.09-0.38,0.51-0.66,0.37c-1.59-0.79-1.97,0.56-2.88,1.35c-1.19,1.03-1.13,2.13-0.75,3.25
	c0.93,2.78-0.15,5.02-1.89,6.96c-0.66,0.74-0.94,1.48-0.93,2.28c0.05,3.54-1.25,6.71-2.36,9.98c-1.32,3.89-4.51,6.17-7.11,8.96
	c-0.91,0.98-2.21,1.31-3.68,1.3c-1.26,0-2.46,0.64-3.28,1.78c-0.69,0.96-1.44,1.87-2.14,2.82c-0.71,0.96-1.93,1.14-2.91,1.95
	c0.86,0.51,1.54,0.59,2.53,0.37c2.75-0.62,4.73-1.94,6.5-4.25c1.45-1.9,3.47-3.52,5.5-4.96c1-0.71,1.87-1.61,2.8-2.43
	c0.01,0.63,0.47,0.9,0.91,1.25c0.52,0.41,0.87,0.95,0.49,1.7c-0.33,0.64-0.81,0.9-1.46,0.66c-0.71-0.26-0.85,0.04-0.89,0.66
	c-0.05,0.91-0.58,1.34-1.48,1.39c-0.92,0.05-1.41,0.43-1.15,1.47c0.13,0.51-0.1,1.21-0.49,1.28c-1.54,0.29-2.15,1.4-2.75,2.62
	c-0.17,0.33-0.57,0.51-0.98,0.5c-0.68-0.03-0.99,0.27-0.97,0.97c0.03,1.29-0.72,1.67-1.89,1.66c-2.07-0.03-4.13,0.01-6.2-0.02
	c-1.17-0.02-1.95-0.41-1.48-1.81c0.08-0.25,0.15-0.56,0.08-0.8c-0.66-2.11-0.46-3.77,2.09-4.35c0.49-0.11,0.45-0.67,0.59-1.07
	c0.57-1.65,4-4.41,5.46-4.36c1.18,0.04,1.6-0.35,2.29-1.47c0.81-1.3,2.17-2.83,3.47-3.47c1.66-0.81,2.14-2.76,3.93-3.26
	c0.25-0.07,0.55-1.2,0.32-1.96c-0.38-1.22-0.13-2.48-0.16-3.73c-0.02-0.93,0.43-1.66,1.37-1.74c1.01-0.09,1.33-0.74,1.41-1.49
	c0.1-1.04,0.15-2.13-0.05-3.14c-0.28-1.41,0.07-2.43,1.41-2.86c1.22-0.4,1.41-1.12,1.45-2.3c0.07-2.08-0.42-4.1-0.38-6.16
	c0.05-2.16,0.64-2.78,2.78-2.33c1.38,0.29,2.31,0.16,2.78-1.31c0.09-0.27,0.38-0.6,0.65-0.68c1.78-0.53,1.81-1.8,1.67-3.34
	c-0.16-1.73,0.66-2.59,2.37-2.55c1.96,0.05,3.94-0.07,5.88,0.35c0.11,0.02,0.23,0.11,0.31,0.08c2.27-0.95,3.8-0.66,3.92,2.23
	c0.02,0.48,0.54,0.62,1.04,0.49c0.66-0.17,1.21,0.18,1.24,0.73c0.09,1.62,0.93,1.53,2.23,1.48c0.9-0.04,1.17,0.02,1.29-0.96
	c0.23-1.93,1.81-1.39,3.03-1.44c-0.59-4.09,3.11-2.12,4.75-3.34c-1.72-0.85-2.3-3.03-4.44-3.21c-0.13-0.01-0.36-0.19-0.36-0.3
	c-0.05-1.9-2.18-2.41-2.66-3.99c-0.23-0.75-0.79-0.64-1.31-0.62c-0.8,0.02-1.61-0.29-1.58-1.06c0.08-2.03-1.51-1.77-2.54-1.8
	c-1.15-0.03-2.35-0.28-3.53,0.18c-0.97,0.38-1.58-0.4-2.21-1.36c-0.35,1.15-0.67,1.93-0.41,2.99c0.69,2.91-0.36,3.75-3.37,3.31
	c-1.34-0.19-2.77,0.23-4.16,0.35c-1.24,0.1-2.19-0.2-2.14-1.72c0.02-0.62-0.27-0.85-0.88-0.9c-1.47-0.1-2-0.96-1.66-2.34
	c0.22-0.88-0.37-1.03-0.93-1.41c-0.84-0.56-0.87,0.16-1.15,0.53c-0.63,0.86-1.44,0.39-2.22,0.35c-2.61-0.15-3.05-0.74-3.39-3.23
	c-0.18-1.29,0.14-1.98,0.86-3c0.7-0.99,0.28-2.53,0.15-3.82c-0.06-0.56-0.6-0.2-0.94-0.17c-2.57,0.24-3.55-1.04-2.6-3.45
	c0.23-0.57,0.33-1.12,0.37-1.73c0.09-1.51,0.82-2.1,2.36-1.94c0.47,0.05,0.98,0.06,1.41,0.13c1.74,0.27,1.61-1.25,2.21-2.07
	c-0.05,0.27-0.13,0.53-0.14,0.8c-0.1,2.32-0.1,2.33-2.51,2.73c-0.48,0.08-0.81,0.3-1.01,0.71c-0.23,0.49,0.06,0.86,0.42,1.12
	c0.75,0.55,0.85,1.29,0.83,2.15c-0.04,2.28-0.04,4.57-0.01,6.86c0.04,2.56,2.81,4.07,5.1,2.8c1.57-0.87,3.87-0.13,4.29,1.6
	c0.5,2.04,2.03,2.99,3.59,3.92c1.25,0.74,2.26,0.1,2.4-1.37c0.16-1.68,2-3.39,3.68-3.35c1.6,0.04,2.96-0.22,4.3-1.36
	c1.79-1.51,3.64-1.96,4.75,1.18c0.72,2.06,2.85,2.62,4.42,3.8c1.76,1.31,4.07,1.93,5.13,4.2c0.41,0.88,1.31,1.63,2.15,2.18
	c1.62,1.07,2.88,2.55,3.78,4.12c0.88,1.55,2.02,1.45,3.1,1.09c3.17-1.04,6.29-0.71,9.5-0.34c1.64,0.19,3.45-0.1,5.05-0.61
	c4.01-1.28,8.25-1.89,12.01-3.95c0.87-0.47,1.87-0.42,2.8-0.63c1.95-0.45,3.85-1.07,5.52-2.23c1.22-0.85,2.41-0.88,3.5,0.25
	c0.99,1.02,2.44,1.47,3.18,2.87c0.25,0.47,1.55,0.28,2.22,0.65c2.31,1.31,4.89,1.93,7.29,2.99c1.23,0.55,2.54,0.3,3.77,0.69
	c1.8,0.57,2.11,1.24,1.11,2.85c-0.2,0.32-0.37,0.66-0.55,0.99c1.1,0.57,2.44,0.71,3.31,1.78c0.83,1.02,0.98,2.09,0.13,3.1
	c-0.85,1-2.02,1.16-3.05,0.36c-0.89-0.69-1.67-0.67-2.52-0.15c-0.61,0.37-1.27,0.32-1.9,0.25c-0.69-0.07-0.77,0.36-0.96,0.81
	c-0.22,0.52-0.31,1.04,0.32,1.18c0.5,0.11,0.56,1.16,1.42,0.53c0.55-0.4,1.25-1.29,1.98-0.71c0.9,0.71,1.79,1.48,2.31,2.63
	c0.99,2.22,1.84,4.57,4.42,5.63c1.61,0.66,2.9,1.84,3.56,3.54c0.45,1.15,0.23,2.11-0.95,2.73c-1.2,0.64-2.32,0.43-2.97-0.68
	c-0.52-0.89-1.18-1.4-2.09-1.59c-2.19-0.48-3.61-2.09-5.32-3.32c-1.74-1.25-2.24-3.62-4.36-4.45c-0.44-0.17-0.86-0.71-1.26-0.67
	c-2.96,0.25-5.33-1.11-7.65-2.64C520.77,490.49,520.48,490.64,520.27,490.68z"/>
<path d="M455.3,518.81c-0.03-1.08,0.06-1.69-0.15-2.35c-0.43-1.39,0.17-2.41,1.56-2.29c1.73,0.15,1.32-0.97,1.41-1.86
	c0-0.04-0.09-0.11-0.08-0.13c0.78-1.79-0.56-3.4-0.46-5.14c0.08-1.23,0.47-2.05,1.85-1.71c0.85,0.2,1.29-0.3,1.52-0.84
	c0.4-0.96,1.3-1.25,2-1.81c0.67-0.54,1.21-0.13,1.72,0.26c0.76,0.57-0.04,0.81-0.24,1.24c-0.63,1.37-0.72,2.91-0.93,4.35
	c-0.56,3.86-1.34,7.65-2.44,11.38c-0.72,2.44,0.02,4.82,0.2,7.21c0.15,2.11,1.04,4.18,1.09,6.27c0.04,1.66,0.25,3.62-1.34,4.95
	c-0.26,0.22-0.69,0.79-0.88,0.36c-0.4-0.91-1.23-0.37-1.63-0.65c-1.34-0.94-3.42-0.82-3.97-2.91c-1.02,1.68-0.3,3.49-0.86,5.12
	c-0.28,0.81-0.42,1.5-1.41,1.68c-0.41,0.07-0.9,0.27-1.14,0.58c-1.52,1.93-3.28,0.88-4.89,0.32c-1.32-0.46-2.66-0.8-4.02-1.03
	c-2.14-0.36-3.22-1.53-2.83-3.63c0.25-1.32,0.24-2.55-0.07-3.79c-0.84-3.32,0.01-6.5,0.72-9.68c0.35-1.58,0.71-3.14,0.6-4.77
	c-0.18-2.87,0.49-5.71,0.36-8.59c-0.07-1.51-0.28-2.98-0.59-4.45c-0.28-1.33-0.17-2.52,1.07-3.47c1.09-0.83,1.61-2.19,1.97-3.41
	c0.81-2.73,2.28-5.08,3.78-7.42c0.92-1.43,2.77-1.25,4.12-2c0.68-0.38,1.49-0.46,2.12-1.06c0.55-0.52,1.37-0.51,1.87,0.14
	c0.52,0.67,1.77,0.94,1.31,2.21c-0.25,0.7-0.35,1.33,0.06,2.11c0.62,1.2-0.35,3.61-1.67,4.36c-0.83,0.48-1.08,1.09-1.07,1.98
	c0.03,3.81-0.21,7.63,0.1,11.42c0.16,2.01,0.63,4.01,0.61,6.06C454.65,518.06,454.93,518.28,455.3,518.81z"/>
<path d="M566.58,465.88c2.14-2.04,2.84-4.82,4.22-7.18c1.7-2.91,3.7-5.67,4.99-8.83c0.36-0.89,1.27-1.17,2.19-1.05
	c0.93,0.12,1.64,0.69,1.85,1.6c0.2,0.83,0.29,1.72-0.12,2.54c-1.16,2.35-2.28,4.7-3.56,7c-2,3.59-3.74,7.39-4.34,11.53
	c-0.52,3.61-1.39,7.08-2.73,10.5c-0.69,1.76-1.16,3.65-1.89,5.43c-0.34,0.82-0.63,1.65-1.49,2.24c-0.77,0.52-0.45,1.67-0.77,2.49
	c-0.53,1.41-0.05,3.07-1.21,4.38c-0.53,0.6-0.72,1.5-1.78,1.19c-1.06-0.31-1.65-0.96-1.84-2.16c-0.65-4.1,0.09-8.24-0.4-12.31
	c-0.55-4.61,1.08-8.84,1.6-13.25c0.34-2.87,0.51-5.76,1.42-8.52c0.42-1.27,1.1-2.45,0.98-3.87c-0.06-0.72-0.06-1.4-0.81-1.8
	c-0.75-0.4-1.18-0.01-1.65,0.52c-0.41,0.47-1.02,0.36-1.51,0.16c-0.62-0.25-0.26-0.91-0.39-1.29c-0.57-1.64,0.61-2.33,1.46-3.17
	c1.34-1.32,2.48-2.8,3.89-4.09c1.97-1.8,4.45-2.33,6.65-3.53c0.88-0.48,1.74-0.17,2.38,0.47c0.95,0.95,0.88,2.19,0.53,3.35
	c-1.27,4.27-3.08,8.34-5.17,12.26C568.14,462.22,567.04,463.84,566.58,465.88z"/>
<path d="M485.33,549.43c0.08,1.93-0.85,3.48-0.79,5.26c0.04,1.14-1.05,1.88-2.3,1.78c-1.32-0.1-1.96-0.92-2.13-2.23
	c-0.24-1.77,0.41-3.41,0.73-5.08c0.33-1.69,0.66-3.37,0.59-5.1c-0.03-0.82,0.12-1.57,0.42-2.36c0.5-1.32-0.38-2.57-0.59-3.85
	c-0.3-1.82-1.62-3.5-0.28-5.44c0.33-0.47-0.36-0.57-0.64-0.69c-0.62-0.26-0.62-0.73-0.49-1.21c0.32-1.11,1.96-1.87,3.54-1.73
	c1.35,0.11,1.38,1.26,1.53,2.12c0.12,0.69,0.09,1.32,0.71,1.83c0.73,0.6,0.15,1.24-0.2,1.71c-0.62,0.82-0.59,1.48-0.02,2.33
	c1.26,1.9,1.66,4.3,3.47,5.9c0.42,0.37,0.5,1.05,0.31,1.53c-0.55,1.41-0.13,2.46,0.9,3.48c0.48,0.47,0.81,1.15,1.06,1.8
	c0.38,0.98,0.86,1.39,2.04,1.23c1.6-0.22,2.52,0.76,2.55,2.4c0.02,1.33,0.22,2.68-0.99,3.77c-1.71,1.54-4.43,0.71-5.44-1.74
	C488.85,554.02,486.33,550.33,485.33,549.43z"/>
<path class="st1" d="M470.94,557.28c0.22-0.8,1.01-1.19,0.63-1.82c-0.37-0.61-1.08-0.2-1.63-0.26c-0.47-0.05-0.95,0-1.44,0.11
	c-0.73,0.17-1.4,0.03-1.86-0.76c-0.47-0.81-0.07-1.41,0.39-1.88c1.91-1.94,4.2-3.32,6.87-3.94c0.81-0.19,1.78-0.22,2.32,0.7
	c0.29,0.48,0.66,0.65,1.2,0.58c0.84-0.1,1.37,0.42,1.6,1.09c0.24,0.68,0.14,1.42-0.68,1.77c-0.33,0.14-0.48,0.35-0.57,0.7
	c-0.54,2.06-2.6,2.61-3.99,3.79C473.09,557.95,472.01,556.81,470.94,557.28z"/>
<path class="st1" d="M426.87,565.52c0.2,1.14-0.27,2.57-0.79,3.72c-0.37,0.82-0.92,1.94-1.86,2.54c-0.94,0.6-1.91,0.54-2.71-0.17
	c-1.11-0.98-1.82-2.31-1.28-3.74c0.61-1.63,1.75-3.03,2.1-4.84c0.21-1.1,1.35-1.52,2.33-1.23c1.06,0.31,2.36,0.67,2.22,2.28
	C426.85,564.48,426.87,564.86,426.87,565.52z"/>
<path class="st2" d="M401.67,614.62c-1.49-2.98-1.88-6.3-2.67-9.53c-0.41-1.68-0.95-3.32-1.22-5.06c-0.16-1.06-1.26-1.82-1.15-3.13
	c0.03-0.39-0.82-1.03-1.68-0.88c-0.96,0.17-0.63,0.88-0.65,1.4c-0.04,1.29-0.01,2.49,0.77,3.7c0.98,1.52,0.46,3.38,0.51,5.09
	c0.02,0.81-0.03,1.6,0.6,2.27c0.23,0.25,0.46,0.77,0.35,1.03c-0.78,1.8,0.39,3.17,0.96,4.68c-0.61,0.17-1.17,0.49-1.86,0.46
	c-0.95-0.03-1.39-0.43-1.39-1.38c0-1.36,0.33-2.8-1.25-3.68c-0.43-0.24-0.39-0.96-0.38-1.52c0.03-1.47-0.01-2.94,0.01-4.41
	c0.01-0.88,0.1-1.72-1.03-2.08c-0.45-0.15-0.8-0.75-0.56-1.22c1.19-2.29,0.39-4.55-0.12-6.76c-0.29-1.3-0.2-2.53-0.23-3.93
	c0.75,0.69,0.8,1.41,0.55,2.15c-0.35,1.01-0.06,1.53,0.96,1.94c1.2,0.48,1.19-0.31,1.48-1.02c0.23-0.57,0.44-1.2,1.1-1.54
	c1.36-0.69,1.5-1.55,0.49-2.65c-0.44-0.48-1.2-0.89-0.22-1.58c0.11-0.07,0.13-0.29,0.16-0.45c0.18-1.22-1.98-5.03-3.14-5.57
	c-0.29-0.13-0.68-0.3-0.77-0.54c-1.05-2.97-3.09-5.46-3.95-8.54c-1.06-3.79-1.45-7.74-2.83-11.46c-0.3-0.82-0.14-1.71-0.24-2.56
	c-0.21-1.89-0.33-3.74-1.41-5.4c-0.18-0.28-0.3-0.9,0.16-1.16c0.4-0.22,0.69,0.18,0.96,0.44c1.8,1.74,3.82,3.38,4.88,5.65
	c1.44,3.07,3.8,5.8,4.26,9.2c0.42,3.13,3.02,5.19,3.4,8.23c0.02,0.18,0.2,0.41,0.36,0.5c2.18,1.24,1.95,3.47,2.26,5.47
	c0.64,4.06,0.6,8.22,1.96,12.16c0.41,1.2,1.83,1.75,1.96,3.2c0.03,0.32,0.29,0.83,0.33,1.28c0.02,0.22-0.06,0.57,0.04,0.63
	c2.25,1.36,0.55,3.44,0.91,5.13c0.18,0.83-0.12,1.77,1.18,1.92c1.22,0.13,1.57-0.48,1.76-1.55c0.32-1.78,1.55-3.32,1.31-5.27
	c-0.08-0.63,0.38-0.92,0.93-0.41c1.49,1.37,3.16,2.14,5.25,2.11c0.57-0.01,0.65,0.02,1.01-0.48c1.21-1.68,0.86-3.56,0.96-5.59
	c0.5,0.52,0.99,0.99,1.59,0.7c1.5-0.72,1.31,0.98,2.01,1.4c0.34,0.2-0.23,0.48-0.4,0.69c-1.49,1.83-1.63,3.59-0.4,5.63
	c0.11,0.18,0.22,0.38,0.29,0.58c0.95,2.76,2.51,2.55,5.03,1.48c0.88-0.38,0.81-1.27,0.84-2.04c0.01-0.25-0.12-0.52-0.21-0.77
	c-1.23-3.31-1.11-3.64,2.06-4.91c0.4-0.16,0.98-0.43,1.29,0.17c0.2,0.39,0.9,0.62,0.51,1.23c-0.65,1.02-0.73,2.23-1.15,3.33
	c-0.43,1.13-0.75,2.16-2.21,2.51c-1.23,0.29-1.31,1.31-0.57,2.3c0.65,0.87,1.13,1.83,1.47,2.86c0.27,0.82,0.82,1.59-0.5,2.22
	c-0.68,0.33-0.68,1.47-0.03,1.98c0.81,0.64,1.75,0.07,2.46-0.4c1.43-0.95,1.67-2.66,2.22-4.12c0.43-1.13,0.43-2.42,1.31-3.39
	c0.71-0.78,0.72-1.73,0.71-2.72c-0.03-2.28,0.91-3.31,3.45-3.75c-0.78,2.76-0.4,5.61-1.36,8.36c-0.6,1.72-0.85,3.64-1.19,5.45
	c-0.4,2.12-1.09,4.3-0.86,6.54c0.09,0.9-0.13,1.32-1.24,1.28c-1.88-0.07-2.16,1.75-2.52,2.93c-0.32,1.07-1.19,1.75-1.41,2.83
	c-0.13,0.65-0.74,0.38-1.22,0.26c-1.24-0.33-2.42-0.37-3.51,0.54c-0.74,0.62-1.37,0.54-1.99-0.38c-0.79-1.16-1.81-2.05-3.33-2.37
	c-0.87-0.18-1.68-0.6-2.42-1.39c-0.9-0.96-2.51-0.9-3.77-0.72c-0.89,0.13-1.62,1.04-1.43,2.23c0.03,0.17,0.23,0.49-0.08,0.53
	c-0.96,0.11-1.98-0.02-2.63-0.69c-0.84-0.85,0.11-1.58,0.54-2.26c0.22-0.34,0.59,0.02,0.87,0.11c1.26,0.39,2.56-0.3,2.52-1.56
	c-0.06-1.79,0.75-3.09,1.9-4.28c0.64-0.65,0.53-1.4,0.29-2.11c-0.17-0.51-0.7-0.6-1.23-0.59c-0.82,0.02-0.88,0.81-1.29,1.15
	c-1.23,1.03-1.81,3.08-3.98,2.78c-0.56-0.08-0.9,0.27-1.11,0.77c-0.13,0.3,0.18,0.91-0.46,0.82c-0.4-0.05-1.07-0.35-1.08-0.57
	c-0.08-1.2-1.28-2.52,0.34-3.63c0.35-0.24,0.5-0.43,0.99-0.45c0.71-0.03,1.48-0.3,2.11-0.68c1.1-0.65,1.36-1.68,0.64-2.76
	c-0.6-0.9-1.25-2.17-2.46-0.5c-0.39,0.54-0.61,0.23-0.92-0.21c-0.72-1-1.85-1.32-2.87-0.76c-1.01,0.56-1.12,1.63-0.57,2.7
	C402.2,613.14,402.32,613.96,401.67,614.62z"/>
<path class="st0" d="M465.84,577.57c0.69,1.34,1.31,2.61,2.88,3.05c0.85,0.24,1.39,0.98,1.52,1.77c0.19,1.14,0.57,2.2,1.1,3.17
	c0.81,1.5,0.96,2.99,0.48,4.54c-0.54-0.53-0.54-0.53-0.56-1.46c-0.05-1.9-1.75-2.99-3.48-2.14c-0.7,0.34-1.32,0.55-2.11,0.42
	c-1.72-0.29-1.95,1.46-2.89,2.23c-0.18,0.14-0.26,0.41-0.49,0.8c-0.53-3.11-0.01-5.86,0.89-8.56c0.16-0.48,0.29-0.92,0.25-1.41
	c-0.05-0.62,0.02-1.08,0.84-0.96C465.32,579.18,465.68,578.5,465.84,577.57z"/>
<path class="st2" d="M374.77,531.69c1.49,0.98,2.64,0.8,3.79-0.39c0.59-0.61,1.52-0.38,2.03,0.13c0.56,0.55,1.14,1.39,1.13,2.09
	c-0.01,0.59-1.11,0.61-1.74,0.78c-0.78,0.21-1.54,0.33-1.82,1.25c-0.25,0.81-0.85,0.65-1.19,0.2c-0.57-0.76-1.14-1.46-1.98-1.99
	C374.28,533.29,374.87,532.46,374.77,531.69z"/>
<path class="st2" d="M413.44,579.22c0.52,1.27,0.88,2.36,1.42,3.35c0.34,0.63,0.26,1.19-0.13,1.55c-1.32,1.25-0.6,2.29,0.48,2.88
	c0.87,0.48,0.87,1.22,1.22,1.87c0.02,0.03-0.2,0.28-0.29,0.27c-0.85-0.12-1.68-0.44-2.18-1.1c-0.45-0.6-0.8-1.39-0.89-2.13
	C412.81,583.76,412.09,581.56,413.44,579.22z"/>
<path class="st2" d="M419.11,590.34c-0.59-1.83-0.55-3.5,0.11-4.98c0.38-0.84,0.87-1.66,1.12-2.55c0.23-0.81,0.64-0.57,1.04-0.28
	c0.48,0.36,0.58,4.77,0.07,4.91c-1.16,0.32-1.25,1.47-1.95,2.12C419.37,589.7,419.32,589.92,419.11,590.34z"/>
<path class="st2" d="M444.18,599.6c1.32-0.01,2.06,0.16,1.35,1.57c-0.57,1.12,0.13,2.49-0.66,3.65c-0.53,0.78-0.92,0.93-1.31,0.04
	c-0.3-0.7-1.11-1.33-0.4-2.3c0.23-0.31,0.15-0.99-0.01-1.41C442.63,599.83,443.23,599.52,444.18,599.6z"/>
<path class="st2" d="M379.87,537.52c1.38-0.21,2.06-1.15,2.62-2.46c0.63,0.98,1.04,1.66,0.19,2.55
	C381.71,538.63,380.85,538.26,379.87,537.52z"/>
<path class="st3" d="M512.76,488.68c0.01,0.95-0.25,1.42-0.83,1.76c-0.61,0.35-1.16,0.09-1.43-0.34c-0.39-0.61-1.06-0.46-1.53-0.8
	c-0.96-0.68-1.09-1.8-0.19-2.39c1.03-0.68,1.96-0.05,2.91,0.26C512.56,487.46,512.66,488.21,512.76,488.68z"/>
<path class="st4" d="M503.73,497.44c-0.6,0.03-0.96-0.07-0.79-0.5c0.29-0.69,0.76-1.33,1.55-1.44c0.27-0.04,1.04,0.17,0.89,0.67
	C505.12,497.01,504.27,497.24,503.73,497.44z"/>
<path class="st5" d="M501.59,502.7c-1.08-0.22-1.64-0.37-1.98-1.22C500.38,501.59,500.91,501.8,501.59,502.7z"/>
<path class="st0" d="M471.31,483.21c0,2.34,0,2.29-2.1,2.17c-0.86-0.05-1.64-0.43-2.53-0.39c-0.92,0.04-0.83-0.96-1.19-1.51
	c-0.45-0.69,0.23-0.74,0.49-1.06c0.68-0.86,1.41-1.71,1.92-2.67c0.4-0.76,0.82-0.77,1.54-0.67c0.8,0.11,1.36,0.45,1.5,1.21
	C471.13,481.35,471.55,482.38,471.31,483.21z"/>
<path d="M534.59,479.68c0.04,0.66-0.1,1.21,0.19,1.71c0.15,0.26,0.51,0.52,0.22,0.84c-0.28,0.3-0.71,0.17-1.08,0.15
	c-0.48-0.03-0.66-0.36-0.61-0.77c0.1-0.9,0.22-1.8,0.39-2.69c0.07-0.39,0.46-0.48,0.77-0.35
	C535.2,478.87,534.42,479.4,534.59,479.68z"/>
<path class="st6" d="M533.46,482.95c-1.62,0.32-2.66-0.17-3.74-0.43c-0.46-0.11-0.89-0.42-0.66-0.91c0.22-0.48,0.64-0.1,0.97,0.03
	C531.02,482.03,532.02,482.4,533.46,482.95z"/>
<path d="M464.69,485.74c-0.25,0.42-0.27,1.12-0.97,1.1c-0.44-0.01-0.63-0.41-0.53-0.83c0.13-0.5,0.47-0.86,1-0.93
	C464.63,485.03,464.73,485.33,464.69,485.74z"/>
<path d="M458.56,488.46c0.24,0.66,0.73,1.28,0.29,2c-0.06,0.09-0.54,0.09-0.59,0C457.84,489.74,458.29,489.12,458.56,488.46z"/>
<path d="M537.02,496.13c0.16,0.06,0.72-0.14,0.68,0.43c-0.03,0.42-0.47,0.58-0.83,0.64c-0.53,0.08-0.6-0.33-0.62-0.72
	C536.22,496.01,536.49,495.95,537.02,496.13z"/>
<path d="M534.65,493.92c0.27,0.05,0.41,0.42,0.46,0.77c0.05,0.32-0.23,0.42-0.52,0.42c-0.48-0.01-0.65-0.29-0.61-0.72
	C534,494.11,534.12,493.88,534.65,493.92z"/>
<path d="M539.56,500.01c-0.53-0.56-0.44-0.99-0.14-1.52C539.94,498.93,539.88,499.37,539.56,500.01z"/>
</svg>
